<?xml version="1.0" encoding="UTF-8" standalone="no"?>
<svg
   viewBox="-8 -8 600 600"
   fill="none"
   version="1.1"
   id="svg477"
   sodipodi:docname="hex-finger-inkscape.svg"
   xml:space="preserve"
   inkscape:version="1.2.2 (732a01da63, 2022-12-09)"
   xmlns:inkscape="http://www.inkscape.org/namespaces/inkscape"
   xmlns:sodipodi="http://sodipodi.sourceforge.net/DTD/sodipodi-0.dtd"
   xmlns:xlink="http://www.w3.org/1999/xlink"
   xmlns="http://www.w3.org/2000/svg"
   xmlns:svg="http://www.w3.org/2000/svg">
  <sodipodi:namedview
   id="namedview479"
   pagecolor="#505050"
   bordercolor="#ffffff"
   borderopacity="1"
   inkscape:showpageshadow="0"
   inkscape:pageopacity="0"
   inkscape:pagecheckerboard="1"
   inkscape:deskcolor="#505050"
   showgrid="false"
   inkscape:zoom="2.4938836"
   inkscape:cx="242.39303"
   inkscape:cy="292.91664"
   inkscape:window-width="3240"
   inkscape:window-height="2071"
   inkscape:window-x="252"
   inkscape:window-y="2151"
   inkscape:window-maximized="1"
   inkscape:current-layer="svg477" /><defs
   id="defs452"><path
     id="h"
     d="M 0 0 L 600 0"
     stroke-width="1px"
     stroke="#aaaaaa" /><path
     id="v"
     d="M 0 0 L 0 600"
     stroke-width="1px"
     stroke="#aaaaaa" /></defs><image
   width="533.46063"
   height="582.04926"
   preserveAspectRatio="none"
   xlink:href="finger-hex-image.png"
   id="image528"
   x="146.93898"
   y="-204.20004"
   transform="rotate(23.5)"
   style="display:none" /><use
   href="#h"
   transform="translate(0,100) matrix(null,null,null,null,null,null)"
   id="use454" /><use
   href="#h"
   transform="translate(0,200) matrix(null,null,null,null,null,null)"
   id="use456" /><use
   href="#h"
   transform="translate(0,300) matrix(null,null,null,null,null,null)"
   id="use458" /><use
   href="#h"
   transform="translate(0,400) matrix(null,null,null,null,null,null)"
   id="use460" /><use
   href="#h"
   transform="translate(0,500) matrix(null,null,null,null,null,null)"
   id="use462" /><use
   href="#v"
   transform="translate(100) matrix(null,null,null,null,null,null)"
   id="use464" /><use
   href="#v"
   transform="translate(200) matrix(null,null,null,null,null,null)"
   id="use466" /><use
   href="#v"
   transform="translate(300) matrix(null,null,null,null,null,null)"
   id="use468" /><use
   href="#v"
   transform="translate(400) matrix(null,null,null,null,null,null)"
   id="use470" /><use
   href="#v"
   transform="translate(500) matrix(null,null,null,null,null,null)"
   id="use472"
   inkscape:label="use472" /><path d="M -0.2747909,398.81131 C 11.297671,373.4731 11.370859,216.29689 30.048841,193.61232 55.095661,176.1197 89.814411,162.70408 130.05637,142.29158 225.36269,61.95025 322.7884,13.752361 356.80321,3.6060636 448.88541,29.000218 515.82642,93.46831 547.87475,121.53259 c 21.66341,120.47679 -8.88912,89.41391 6.8439,186.8546 -88.8492,38.94033 -84.09937,-89.87589 -72.88774,-159.12176 -1.05529,26.20397 -109.04675,-31.86121 -106.3659,-50.08091 11.20789,16.31322 -102.41393,75.58546 -102.41393,75.58546 0,0 -25.71405,136.8606 -40.71275,128.08048 39.46269,38.03395 90.56502,110.55112 106.35623,141.23335 61.84564,27.78305 222.35135,-60.59431 223.66253,-56.46003" stroke="#dd9933" stroke-width="5.63674px" stroke-linejoin="round" fill="#ffb6b6ff" id="path474" sodipodi:nodetypes="cccccccccccc" /><polygon
   id="hexagon"
   points="0,15 8.7,0 17.3,5 17.3,15 8.7,20 "
   transform="matrix(11.27347,0,0,11.27347,279.08447,119.47734)"
   fill="#ffffff60"
   stroke-width="0.7px"
   stroke-linejoin="round"
   stroke="#008800"
   inkscape:label="hexagon" /></svg>
