<?xml version="1.0" encoding="UTF-8" standalone="no"?>
<!DOCTYPE svg PUBLIC "-//W3C//DTD SVG 1.1//EN" "http://www.w3.org/Graphics/SVG/1.1/DTD/svg11.dtd">
<svg width="100%" height="100%" viewBox="0 0 800 600" version="1.1"
    xmlns="http://www.w3.org/2000/svg" xmlns:xlink="http://www.w3.org/1999/xlink"
    xml:space="preserve" xmlns:serif="http://www.serif.com/"
    style="fill-rule:evenodd;clip-rule:evenodd;stroke-linecap:round;stroke-linejoin:round;stroke-miterlimit:1.5;">
    <path d="M323.376,566.835L319.662,471.983C319.662,471.983 223.122,434.852 217.046,424.051C210.97,413.249 212.658,379.156 205.907,368.354C199.156,357.553 188.017,347.764 188.017,347.764C188.017,347.764 193.418,338.987 202.194,341.013C210.97,343.038 212.321,342.363 217.046,347.764C221.772,353.165 224.81,365.316 228.523,368.354C232.236,371.392 226.835,368.692 237.975,374.093C249.114,379.494 256.54,384.895 261.266,390.295L265.992,395.696" style="fill:none;stroke:black;stroke-width:1px;"/>
    <path d="M242.7,374.093L249.114,335.612L249.114,293.755C249.114,293.755 241.013,226.582 256.203,226.245C271.392,225.907 270.38,293.755 270.38,293.755C270.38,293.755 269.367,330.886 270.38,330.211C271.392,329.536 274.093,337.3 275.781,335.612C277.468,333.924 283.207,330.211 283.207,330.211L283.207,293.755C283.207,293.755 278.143,226.582 294.684,226.245C311.224,225.907 303.122,293.755 303.122,293.755L303.122,330.211L310.549,335.612L310.549,330.211L314.262,293.755C314.262,293.755 309.873,226.92 326.413,226.245C342.954,225.57 335.19,293.755 335.19,293.755L335.19,330.211L339.578,335.612L339.578,330.211L347.679,293.755C347.679,293.755 342.954,241.435 355.105,242.11C367.257,242.785 361.181,293.755 361.181,293.755L361.181,335.612C361.181,335.612 372.321,353.84 368.27,362.278C364.219,370.717 377.722,379.831 378.059,391.308C378.397,402.785 383.122,447.342 383.122,447.342L383.122,566.16" style="fill:none;stroke:black;stroke-width:1px;"/>
</svg>