<svg xmlns="http://www.w3.org/2000/svg" data-name="Layer 1" width="460" height="324" transform="scale(-1,1)"
    viewBox="0 0 899.23822 634.83795" xmlns:xlink="http://www.w3.org/1999/xlink">
    <defs>
        <linearGradient id="grad1" x1="0%" y1="0%" x2="100%" y2="100%">
            <stop offset="0%" style="stop-color:#FF0; stop-opacity:1" />
            <stop offset="100%" style="stop-color:#FA0; stop-opacity:1" />
        </linearGradient>
        <linearGradient id="palmGrad" gradientTransform="rotate(90)">
            <stop offset="0%" style="stop-color:#FD0; stop-opacity:1" />
            <stop offset="50%" style="stop-color:#FF0; stop-opacity:1" />
            <stop offset="100%" style="stop-color:#FD0; stop-opacity:1" />
        </linearGradient> 
        <polygon id="dip" points="0,0 100,0 200,100 100,100 Z" stroke-linejoin="round" stroke-width="10px" stroke="#AA0" fill="url(#grad1)"/>
        <polygon id="dipThumb" 
            points="150,200 0,100 0,0 100,0 100,100 250,200 Z" 
            stroke-width="10px" stroke-linejoin="round" stroke="#AA0" fill="url(#grad1)"/>
        <g id="handexagon">
        <path d="
            M 0 275 
            L 0 150
            L 100 0 
            L 300 0 
            L 400 100 
            L 600 100 
            L 700 200
            L 600 300
            L 400 300
            A 400 300, 100, 0, 1, 300 400
            L 200 400 Z" 
            stroke="#AA0" stroke-linejoin="round" 
            stroke-width="10px" fill="url(#palmGrad)"/>
        <use href="#dip" x="100" y="0" />
        <use href="#dip" x="200" y="0" />
        <use href="#dip" x="400" y="100" />
        <use href="#dip" x="500" y="100" />
        <use href="#dipThumb" x="50" y="200" />
        <path d="M50,200 L100,100 L150,150 L350,150 L450,250 L650,250 L350,250 A350,250 0,0,1, 300,300 L200,275 L200,200 Z" stroke-width="5px" stroke="#AA0" stroke-linejoin="round" fill="#FF7"/>
        </g>
    </defs>
    <path
        d="M 262.5 640.3 a 81.1 81.1 0 0 1 -52.7 -19.5 c -4.9 -4.2 -10.1 -11.5 -15.5 -21.7 a 49.5 49.5 0 0 1 -1.6 -42.8 a 56.8 56.8 0 0 1 -9.4 7.7 l -1.7 1.1 l -0.1 -2.1 c -0.1 -1.3 -0.1 -2.7 -0.1 -4 c 0 -7.6 5.8 -15.3 3.1 -22.4 c -11.2 -29.7 -46.7 -59.2 4.8 -105.1 c 4.8 -4.2 -1.6 -12.7 -1.6 -19.2 c 0 -63 68.4 -157.5 114.2 -114.2 c 26.7 25.2 82.5 43.2 108.5 78.3 l 0.3 1 l -1 0.4 a 61.2 61.2 0 0 1 -16.3 4.3 a 77.6 77.6 0 0 0 18.1 1.5 l 0.9 0 l 0.2 0.9 a 114.7 114.7 0 0 1 3.4 27.8 l 0 1 a 50.6 50.6 0 0 0 16.7 37.7 a 81.2 81.2 0 0 1 26.5 60 c 0 13.4 -9.1 30.9 -16.7 43.2 A 24.4 24.4 0 0 1 424.8 566 a 23.9 23.9 0 0 1 -19.3 -6.2 a 78.9 78.9 0 0 0 13.9 19.7 l 1 1.1 l -1.3 0.8 a 81 81 0 0 1 -40.8 11 l -0.8 0 c -21.8 0 -42.5 8.4 -56.7 23.2 A 81.7 81.7 0 0 1 262.5 640.3 Z"
        transform="translate(-162.2,-132.4)" fill="#e6e6e6" />
    <path
        d="M 234 767.3 a 1.5 1.5 0 0 1 -1.4 -1.3 c -0.1 -0.4 -6.1 -44.2 -0.7 -102.3 c 5 -53.7 21.2 -131 69.6 -194.6 a 1.5 1.5 0 1 1 2.3 1.8 c -48 63 -64 139.8 -69 193.1 c -5.4 57.8 0.6 101.2 0.7 101.7 a 1.5 1.5 0 0 1 -1.4 1.7 Z"
        transform="translate(-162.2,-132.4)" fill="#3f3d56" />
    <path
        d="M 278.2 557.1 a 1.5 1.5 0 0 1 -0.9 -2.6 a 200.9 200.9 0 0 1 44.4 -22.6 c 24.5 -9 61.7 -17.1 100 -4.9 a 1.5 1.5 0 1 1 -0.9 2.8 c -37.5 -11.9 -74.1 -4 -98.1 4.8 a 197.6 197.6 0 0 0 -43.6 22.2 A 1.5 1.5 0 0 1 278.2 557.1 Z"
        transform="translate(-162.2,-132.4)" fill="#3f3d56" />
    <path
        d="M 864.5 640.3 a 81.1 81.1 0 0 1 -52.7 -19.5 c -4.9 -4.2 -10.1 -11.5 -15.5 -21.7 a 49.5 49.5 0 0 1 -1.6 -42.8 a 56.8 56.8 0 0 1 -9.4 7.7 l -1.7 1.1 l -0.1 -2.1 c -0.1 -1.3 -0.1 -2.7 -0.1 -4 c 0 -7.6 5.8 -15.3 3.1 -22.4 c -11.2 -29.7 -46.7 -59.2 4.8 -105.1 c 4.8 -4.2 -1.6 -12.7 -1.6 -19.2 c 0 -63 89 -171.9 114.2 -114.2 c 31.1 71.2 84.7 63.6 108.5 78.3 l 0.3 1 l -1 0.4 a 61.2 61.2 0 1 1 -16.3 4.3 a 77.6 77.6 0 0 0 18.1 1.5 l 0.9 0 l 0.2 0.9 a 114.7 114.7 0 0 1 3.4 27.8 l 0 1 a 50.6 50.6 0 0 0 16.7 37.7 a 81.2 81.2 0 0 1 26.5 60 c 0 13.4 -9.1 30.9 -16.7 43.2 a 24.4 24.4 0 0 1 -17.9 11.5 a 23.9 23.9 0 0 1 -19.3 -6.2 a 78.9 78.9 0 0 0 13.9 19.7 l 1 1.1 l -1.3 0.8 a 81 81 0 0 1 -40.8 11 l -0.8 0 c -21.8 0 -42.5 8.4 -56.7 23.2 A 81.7 81.7 0 0 1 864.5 640.3 Z"
        transform="translate(-162.2,-132.4)" fill="#e6e6e6" />
    <path
        d="M 836 767.3 a 1.5 1.5 0 0 1 -1.4 -1.3 c -0.1 -0.4 -6.1 -44.2 -0.7 -102.3 c 5 -53.7 21.2 -131 69.6 -194.6 a 1.5 1.5 0 1 1 2.3 1.8 c -48 63 -64 139.8 -69 193.1 c -5.4 57.8 0.6 101.2 0.7 101.7 a 1.5 1.5 0 0 1 -1.4 1.7 Z"
        transform="translate(-162.2,-132.4)" fill="#3f3d56" />
    <path
        d="M 876.2 560.1 a 1.5 1.5 0 0 1 -0.9 -2.6 a 200.9 200.9 0 0 1 44.4 -22.6 c 24.5 -9 61.7 -17.1 100 -4.9 a 1.5 1.5 0 1 1 -0.9 2.8 c -37.5 -11.9 -74.1 -4 -98.1 4.8 a 197.6 197.6 0 0 0 -43.6 22.2 A 1.5 1.5 0 0 1 876.2 560.1 Z"
        transform="translate(-162.2,-132.4)" fill="#3f3d56" />
    <path
        d="M 809.4 393.9 a 1.5 1.5 0 0 1 2.6 -1 a 200.9 200.9 0 0 1 25.7 42.6 c 10.7 23.8 21.5 60.3 12.1 99.4 a 1.5 1.5 0 1 1 -2.8 -0.7 c 9.2 -38.3 -1.4 -74.2 -11.9 -97.5 a 197.6 197.6 0 0 0 -25.3 -41.9 A 1.5 1.5 0 0 1 809.4 393.9 Z"
        transform="translate(-162.2,-132.4)" fill="#3f3d56" />
    <path
        d="M 210.4 384.9 a 1.5 1.5 0 0 1 2.6 -1 a 200.9 200.9 0 0 1 25.7 42.6 c 10.7 23.8 21.5 60.3 12.1 99.4 a 1.5 1.5 0 1 1 -2.8 -0.7 c 9.2 -38.3 -1.4 -74.2 -11.9 -97.5 a 197.6 197.6 0 0 0 -25.3 -41.9 A 1.5 1.5 0 0 1 210.4 384.9 Z"
        transform="translate(-162.2,-132.4)" fill="#3f3d56" />
    <path
        d="M 612.8 237.6 a 15.7 15.7 0 0 0 -25.2 3.9 c -23.7 16.5 -38.8 38.6 -44.4 66.8 l -42.1 -38.2 a 15.3 15.3 0 1 0 -12.6 12.8 c 7.7 13.1 43.6 71.1 65.7 57.8 c 18.6 -11.2 51.6 -66.4 61.3 -84.8 A 15.7 15.7 0 0 0 612.8 237.6 Z"
        transform="translate(-162.2,-132.4)" fill="#ffb6b6" />
    <path
        d="M 614.2 262.9 c 2.1 -5.7 3.8 -12 2 -17.9 c -2 -6.4 -8.2 -11 -14.8 -12.1 s -13.5 0.9 -19.2 4.4 c -5.7 3.6 -10.3 8.6 -14.4 13.9 l 1.1 -1.8 q -8 10.5 -16.1 21 q 20.4 14.2 40.8 28.3 A 124.4 124.4 0 0 0 614.2 262.9 Z"
        transform="translate(-162.2,-132.4)" fill="#6c63ff" />
    <polygon
        points="393.3,613.6 373.9,613.6 364.6,538.5 393.3,538.5 393.3,613.6"
        fill="#ffb6b6" />
    <path
        d="M 556.2 766.3 l -59.9 0 v -0.8 A 23.3 23.3 0 0 1 519.7 742.3 h 0 l 10.9 -8.3 l 20.4 8.3 l 5.2 0 Z"
        transform="translate(-162.2,-132.4)" fill="#2f2e41" />
    <polygon points="678.9,337.2 687,354.9 622.8,394.8 610.7,368.7 678.9,337.2"
        fill="#ffb6b6" />
    <path
        d="M 859.2 460.5 l 25.1 54.3 l -0.7 0.3 a 23.3 23.3 0 0 1 -30.9 -11.4 l 0 0 L 840.6 497.3 l -1 -22 l -2.2 -4.7 Z"
        transform="translate(-162.2,-132.4)" fill="#2f2e41" />
    <ellipse cx="408.7" cy="165.1" rx="7.6" ry="5.3"
        transform="translate(-192.4,-8) rotate(-16.7)" fill="#e6e6e6" />
    <ellipse cx="458.1" cy="162.6" rx="7.6" ry="5.3"
        transform="translate(-189.6,6.1) rotate(-16.7)" fill="#3f3d56" />
    <ellipse cx="401.2" cy="206.4" rx="7.6" ry="5.3"
        transform="matrix(1,-0.3,0.3,1,-204.6,-8.4)" fill="#ff6584" />
    <ellipse cx="386.5" cy="224.1" rx="3.3" ry="4.8"
        transform="translate(-192.1,-70.2) rotate(-8.9)" fill="#e6e6e6" />
    <ellipse cx="383.7" cy="255.2" rx="3.3" ry="4.8"
        transform="translate(-196.9,-70.3) rotate(-8.9)" fill="#3f3d56" />
    <ellipse cx="431.6" cy="194" rx="3.3" ry="4.8"
        transform="matrix(1,-0.2,0.2,1,-186.9,-63.6)"
        fill="#e6e6e6" />
    <ellipse cx="406.4" cy="185.8" rx="3.3" ry="4.8"
        transform="translate(-186,-67.6) rotate(-8.9)" fill="#ff6584" />
    <ellipse cx="435.9" cy="159.2" rx="3.3" ry="4.8"
        transform="translate(-181.5,-63.4) rotate(-8.9)" fill="#3f3d56" />
    <ellipse cx="712" cy="655.1" rx="7.6" ry="5.3"
        transform="translate(-249.1,-23.1) rotate(-8.3)" fill="#e6e6e6" />
    <ellipse cx="662.8" cy="650.3" rx="7.6" ry="5.3"
        transform="translate(-248.9,-30.2) rotate(-8.3)" fill="#3f3d56" />
    <ellipse cx="725.4" cy="615.3" rx="7.6" ry="5.3"
        transform="translate(-243.2,-21.6) rotate(-8.3)" fill="#ff6584" />
    <ellipse cx="742.6" cy="600" rx="3.3" ry="4.8"
        transform="translate(-166.7,-126.8) rotate(-0.4)" fill="#e6e6e6" />
    <ellipse cx="749.9" cy="569.7" rx="3.3" ry="4.8"
        transform="translate(-166.5,-126.7) rotate(-0.4)" fill="#3f3d56" />
    <ellipse cx="693.5" cy="623.1" rx="3.3" ry="4.8"
        transform="translate(-166.9,-127.2) rotate(-0.4)" fill="#e6e6e6" />
    <ellipse cx="717.3" cy="635" rx="3.3" ry="4.8"
        transform="matrix(1,0,0,1,-167,-127)"
        fill="#ff6584" />
    <ellipse cx="684.2" cy="656.9" rx="3.3" ry="4.8"
        transform="translate(-167.2,-127.2) rotate(-0.4)" fill="#3f3d56" />
    <path
        d="M 586.2 406.7 L 574.3 421.2 c 0.3 3.9 -1 6.2 -4.6 5.7 c 0 0 0.5 7.2 -4 4.8 s -3.4 4.2 -3.4 4.2 L 559 440 s -0.1 7 -3.4 4.2 s -4.4 5.4 -4.4 5.4 l -4.2 5.2 L 503.9 507.4 l 24.1 193.7 l 28.2 -1.8 l 6.9 -169.8 c 1.8 -4.7 4.4 -7.1 8.5 -6.1 c 1.8 0.4 2.9 -0.7 3.6 -2.6 l 3.2 -2.3 l 42.4 -30.7 l 56 96.1 L 816.2 510.4 l -13 -25 l -97.8 32.3 l -2.6 -30.6 c -3.3 -1.9 -2.8 -4.3 -0.6 -6.8 l -0.6 -7.6 c 3.3 -2 1.7 -5.3 -0.7 -8.7 c -5 -3.7 -4.5 -7.9 -1 -12.4 c 0 0 4.4 -57.5 -16.9 -65.4 S 586.2 406.7 586.2 406.7 Z"
        transform="translate(-162.2,-132.4)" fill="#2f2e41" />
    <path
        d="M 628 218.1 L 601.2 219.4 l -14 20 l 0 0 a 111 111 0 0 0 -7.6 68.5 l 9.6 46.5 l -2.6 34.5 c -6.8 5.5 -7.4 12 -1.4 19.5 c -7.3 25.3 55.2 13.9 113 5 c 0.2 -12.1 -2.9 -24.4 -11 -37 l 7.8 -100.8 L 666.2 241.4 l -22 -14.5 Z"
        transform="translate(-162.2,-132.4)" fill="#6c63ff" />
    <path
        d="M 653 245.7 a 15.7 15.7 0 0 0 -2.1 25.4 c 3.2 20.9 23.2 41.1 54.7 58.7 l -46.9 32.1 a 15.3 15.3 0 1 0 9.5 15.2 c 14.5 -4.5 79.2 -26 71.4 -50.5 c -6.6 -20.7 -52.7 -65.5 -68.3 -79.2 A 15.7 15.7 0 0 0 653 245.7 Z"
        transform="translate(-162.2,-132.4)" fill="#ffb6b6" />
    <path
        d="M 602 339.4 a 12.4 12.4 0 0 1 -12.3 -11.4 l -1.7 -21.2 a 12.4 12.4 0 0 1 11.4 -13.3 l 41.1 -3.2 a 12.4 12.4 0 0 1 13.3 11.4 l 1.7 21.2 a 12.4 12.4 0 0 1 -11.4 13.3 l -41.1 3.2 Q 602.5 339.4 602 339.4 Z"
        transform="translate(-162.2,-132.4)" fill="#f2f2f2" />
    <circle cx="445.7" cy="45.6" r="35" fill="#ffb6b6" />
    <path
        d="M 644.3 155.8 c -1.7 -2.2 -3.6 -4.1 -5 -6.4 c -1.4 -2.2 -2.3 -4.7 -3.9 -6.8 c -4.6 -6.2 -13.2 -7.5 -20.9 -8.2 q -7.6 -0.8 -15.2 -1.5 a 35.3 35.3 0 0 0 -8.6 -0.2 a 17.9 17.9 0 0 0 -13 9.2 c -1.5 2.8 -2.5 6.3 -5.4 7.6 a 34.8 34.8 0 0 1 -4.2 1 c -1.4 0.4 -2.8 1.5 -2.7 3 c 0.1 2.7 4.8 4.2 3.6 6.6 c -1 2.1 -5.1 0.6 -5.6 3.8 a 3.4 3.4 0 0 0 0.7 2.6 c 1.3 1.7 3.4 2.1 5.5 2.5 l -3.6 5.1 a 52.8 52.8 0 0 0 36.3 1.4 a 11.2 11.2 0 0 1 14.6 11.8 l 0 0.1 a 3.1 3.1 0 0 0 1.3 3 c 1.8 1.2 3.6 -0.5 4.5 -2.2 c 0.8 -1.7 1.4 -3.8 3.4 -4.5 a 3.9 3.9 0 0 1 4.3 1.8 c 1.6 2.5 0.9 5.4 0 8 a 43.3 43.3 0 0 1 -9.9 16.1 c 7.6 -0.5 5.4 0.3 13 -0.2 l 2.1 0.3 c 5.1 -3.2 7.6 -9.2 8.9 -15.1 C 647.3 181.4 652.6 166.6 644.3 155.8 Z"
        transform="translate(-162.2,-132.4)" fill="#2f2e41" />
    <path
        d="M 673.9 242.9 c -5.1 -3.4 -10.8 -6.6 -16.9 -6.2 c -6.7 0.4 -12.6 5.3 -15.3 11.5 s -2.4 13.3 -0.3 19.7 s 5.9 12.1 10 17.3 l -1.4 -1.5 q 8.3 10.3 16.6 20.6 q 18.6 -16.4 37.3 -32.8 A 124.4 124.4 0 0 0 673.9 242.9 Z"
        transform="translate(-162.2,-132.4)" fill="#6c63ff" />
    <path
        d="M 606.9 764.5 l 0 -0.7 a 80.5 80.5 0 0 1 30.1 -60.6 a 78.1 78.1 0 0 1 16.8 -10.1 l 0.6 -0.3 l 0.1 0.6 c 1.2 7.4 3 14.9 3.9 18.3 l 5.7 -22.4 l 0.6 -0.2 a 15.3 15.3 0 0 1 16.3 5.2 a 15.5 15.5 0 0 1 1.6 17.3 c -1.3 2.5 -2.7 5.1 -3.9 7.6 c -4.4 8.6 -8.9 17.6 -15.5 24.5 a 48.7 48.7 0 0 1 -39.3 14.6 Z"
        transform="translate(-162.2,-132.4)" fill="#f2f2f2" />
    <path
        d="M 688.1 766.5 l -271.8 0.3 a 1.2 1.2 0 1 1 0 -2.4 l 271.8 -0.3 a 1.2 1.2 0 1 1 0 2.4 Z"
        transform="translate(-162.2,-132.4)" fill="#cacaca" />
    <path
        d="M 942.1 766.5 l -156.8 0.3 a 1.2 1.2 0 1 1 0 -2.4 l 156.8 -0.3 a 1.2 1.2 0 1 1 0 2.4 Z"
        transform="translate(-162.2,-132.4)" fill="#cacaca" />
    <path
        d="M 319.1 766.5 l -146.8 0.3 a 1.2 1.2 0 1 1 0 -2.4 l 146.8 -0.3 a 1.2 1.2 0 1 1 0 2.4 Z"
        transform="translate(-162.2,-132.4)" fill="#cacaca" />
    <use xlink:href="#handexagon" transform="translate(340,125) rotate(120) scale(0.055, 0.055)" />
</svg>
