<svg xmlns="http://www.w3.org/2000/svg" viewBox="-55 -65 700 760" fill="none"  xmlns:v="https://vecta.io/nano">
    <defs>
        <linearGradient id="grad1" x1="0%" y1="0%" x2="100%" y2="100%">
            <stop offset="0%" style="stop-color:#FF0; stop-opacity:1" />
            <stop offset="100%" style="stop-color:#FA0; stop-opacity:1" />
        </linearGradient>
        <linearGradient id="palmGrad" gradientTransform="rotate(90)">
            <stop offset="0%" style="stop-color:#FD0; stop-opacity:1" />
            <stop offset="50%" style="stop-color:#FF0; stop-opacity:1" />
            <stop offset="100%" style="stop-color:#FD0; stop-opacity:1" />
        </linearGradient> 
        <polygon id="dip" points="0,0 100,0 200,100 100,100 Z" stroke-linejoin="round" stroke-width="10px" stroke="#AA0" fill="url(#grad1)"/>
        <polygon id="dipThumb" 
            points="150,200 0,100 0,0 100,0 100,100 250,200 Z" 
            
            stroke-width="10px" stroke-linejoin="round" stroke="#CC0" fill="url(#grad1)"/>
        <g id="handexagon">
        <path d="
            M 0 275 
            L 0 150
            L 100 0 
            L 300 0 
            L 400 100 
            L 600 100 
            L 700 200
            L 600 300
            L 400 300
            A 400 300, 100, 0, 1, 300 400
            L 200 400 Z" 
            stroke="#AA0" stroke-linejoin="round" 
            stroke-width="10px" fill="url(#palmGrad)"/>
        <use href="#dip" x="100" y="0" />
        <use href="#dip" x="200" y="0" />
        <use href="#dip" x="400" y="100" />
        <use href="#dip" x="500" y="100" />
        <use href="#dipThumb" x="50" y="200" />
        <path d="M50,200 L100,100 L150,150 L350,150 L450,250 L650,250 L350,250 A350,250 0,0,1, 300,300 L200,275 L200,200 Z" stroke-width="5px" stroke="#AA0" stroke-linejoin="round" fill="#2A2"/>
        </g>
        <polygon id="letter" stroke-linejoin="round" stroke-width="2px" stroke="#AA0" fill="url(#grad1)"/>
    </defs>
    <use href="#handexagon" x="0" y="0" transform="translate(200,-70) rotate(45) "/>
    <!-- <polygon id="h"
        points=" 0,600 20,600 20,630 40,630 40,600 60,600 60,680 40,680 40,650 20,650 20,680 0,680 Z"
        stroke-width="2px" stroke-linejoin="round" stroke="#AA0" fill="url(#grad1)"/>
    <path id="a"
        d=" M130,600 150,600 190,680 170,680 155,650 125,650 110,680 90,680Z M140,620 130,640 150,640Z"
        stroke-width="2px" stroke-linejoin="round" stroke="#AA0" fill="url(#grad1)"/> -->
</svg>