<svg id="chord-hand" viewBox="0 0 65 65" xmlns="http://www.w3.org/2000/svg" fill="none" xmlns:v="https://vecta.io/nano"><style>
        #thumb {
            fill: url("#thumbGradient");
        }
        #index {
            fill: #ffb6b6ff;
        }
        #middle {
            fill: #ffb6b6ff;
        }
        #ring {
            fill: #ffb6b6ff;
        }
        #pinky {
            fill: #ffb6b6ff;
        }
    #middle #mf {
        fill: #0F05;
        False {
            True {stroke: #00F; stroke-width: 2px;}
            False {stroke: #000; stroke-width: 0.1px}
        }
    }#pinky #me {
        fill: #0F0A;
        False {
            True {stroke: #00F; stroke-width: 2px;}
            False {stroke: #000; stroke-width: 0.1px}
        }
    }#thumb #me {
        fill: #0F0F;
        False {
            True {stroke: #00F; stroke-width: 2px;}
            False {stroke: #000; stroke-width: 0.1px}
        }
    }#middle #mf {
        fill: #0F0F;
        False {
            True {stroke: #00F; stroke-width: 2px;}
            False {stroke: #000; stroke-width: 0.1px}
        }
    }</style><defs><linearGradient id="thumbGradient" x1="1" x2="1" y1="0" y2="1"><stop offset="0%" stop-color="#ffb6b6ff" /><stop offset="100%" stop-color="#BD7676" /></linearGradient><path id="phalange" d="                 M 0 0                  L 10 0                 L 10 10                 L 0 10                 Z" stroke-width="useCurrent" stroke="useCurrent" /><path id="tip" d="                 M 0 0                  C 15 0, 15 10, 0 10                 L 0 10                 Z" stroke-width="useCurrent" stroke="useCurrent" /><g id="hand" viewBox="0 0 50 50" x="0" y="0"><g id="thumb"><use id="me" href="#phalange" stroke="#000" stroke-width="0.1px" transform="translate(0,0) scale(1,1) " /><use id="mf" href="#phalange" transform="translate(10,0) scale(1,1) " /><use id="pf" href="#tip" transform="translate(20,0) scale(1,1) " /></g><g id="index" transform="translate(0,10)"><use id="me" href="#phalange" transform="translate(0,0) scale(2,1) " /><use id="mf" href="#phalange" transform="translate(20,0) scale(2,1) " /><use id="pf" href="#tip" transform="translate(40,0) scale(1.5,1) " /></g><g id="middle" transform="translate(0,20)"><use id="me" href="#phalange" transform="translate(0,0) scale(2,1) " /><use id="mf" href="#phalange" transform="translate(20,0) scale(2.25,1) " /><use id="pf" href="#tip" transform="translate(42.5,0) scale(1.75,1) " /></g><g id="ring" transform="translate(0,30)"><use id="me" href="#phalange" transform="translate(0,0) scale(2,1) " /><use id="mf" href="#phalange" transform="translate(20,0) scale(2,1) " /><use id="pf" href="#tip" transform="translate(40,0) scale(1.5,1) " /></g><g id="pinky" transform="translate(0,40)"><use id="me" href="#phalange" transform="translate(0,0) scale(1.5,1) " /><use id="mf" href="#phalange" transform="translate(15,0) scale(1.5,1) " /><use id="pf" href="#tip" transform="translate(30,0) scale(1.5,1) " /></g></g></defs><use href="#hand" transform="translate(0,0) rotate(0)" /></svg>
