<svg id="chord-hand" viewBox="0 0 570 500" xmlns="http://www.w3.org/2000/svg" fill="none" xmlns:v="https://vecta.io/nano"><style>
        #thumb {
            fill: #ffb6b6ff;
        }
        #index {
            fill: #ffb6b6ff;
        }
        #middle {
            fill: #ffb6b6ff;
        }
        #ring {
            fill: #ffb6b6ff;
        }
        #pinky {
            fill: #ffb6b6ff;
        }
    #thumb #mf {
        fill: #0F06;
        False {
            True {stroke: #00F; stroke-width: 2px;}
            False {stroke: none;}
        }
    }#middle #me {
        fill: #0F0C;
        False {
            True {stroke: #00F; stroke-width: 2px;}
            False {stroke: none;}
        }
    }#index #me {
        fill: #0F0F;
        False {
            True {stroke: #00F; stroke-width: 2px;}
            False {stroke: none;}
        }
    }</style><defs><path id="phalange" d="                 M 0 0                  L 10 0                 L 10 10                 L 0 10                 Z" stroke-width="0.1px" stroke="#000" /><path id="tip" d="                 M 0 0                  C 15 0, 15 10, 0 10                 L 0 10                 Z" stroke-width="0.1px" stroke="#000" /></defs><g id="hand" viewBox="0 0 50 50" transform="scale(10,10)" x="0" y="0"><g id="thumb"><use id="me" href="#phalange" transform="translate(0,0) scale(1,1) " /><use id="mf" href="#phalange" transform="translate(10,0) scale(1,1) " /><use id="pf" href="#tip" transform="translate(20,0) scale(1,1) " /></g><g id="index" transform="translate(0,10)"><use id="me" href="#phalange" transform="translate(0,0) scale(2,1) " /><use id="mf" href="#phalange" transform="translate(20,0) scale(2,1) " /><use id="pf" href="#tip" transform="translate(40,0) scale(1.5,1) " /></g><g id="middle" transform="translate(0,20)"><use id="me" href="#phalange" transform="translate(0,0) scale(2,1) " /><use id="mf" href="#phalange" transform="translate(20,0) scale(2,1) " /><use id="pf" href="#tip" transform="translate(40,0) scale(1.5,1) " /></g><g id="ring" transform="translate(0,30)"><use id="me" href="#phalange" transform="translate(0,0) scale(2,1) " /><use id="mf" href="#phalange" transform="translate(20,0) scale(2,1) " /><use id="pf" href="#tip" transform="translate(40,0) scale(1.5,1) " /></g><g id="pinky" transform="translate(0,40)"><use id="me" href="#phalange" transform="translate(0,0) scale(1.5,1) " /><use id="mf" href="#phalange" transform="translate(15,0) scale(1.5,1) " /><use id="pf" href="#tip" transform="translate(30,0) scale(1.5,1) " /></g></g></svg>
